<svg width="600" height="300" viewBox="0 0 600 300" xmlns="http://www.w3.org/2000/svg" xmlns:xlink="http://www.w3.org/1999/xlink">
  <defs>
    <linearGradient id="textGradient" x1="0%" y1="0%" x2="100%" y2="0%">
      <stop offset="0%" stop-color="#4CAF50" />
      <stop offset="50%" stop-color="#2196F3" />
      <stop offset="100%" stop-color="#FF5722" />
    </linearGradient>

    <g id="bigfoot">
      <path d="M 50 150 C 30 130, 20 100, 30 80 C 40 60, 60 50, 80 50 C 100 50, 120 60, 130 80 C 140 100, 130 130, 110 150 C 100 160, 80 170, 60 170 Z" fill="#6B4B3E"/> <circle cx="70" cy="80" r="15" fill="#5A3F33"/> <circle cx="65" cy="75" r="3" fill="#000"/> <circle cx="75" cy="75" r="3" fill="#000"/> <path d="M 68 85 Q 70 88, 72 85" stroke="#000" stroke-width="1" fill="none"/> <path d="M 30 130 Q 20 140, 25 150 Q 30 160, 40 150" fill="#6B4B3E"/> <path d="M 130 130 Q 140 140, 135 150 Q 130 160, 120 150" fill="#6B4B3E"/> </g>

    <g id="yeti">
      <path d="M 50 150 C 30 130, 20 100, 30 80 C 40 60, 60 50, 80 50 C 100 50, 120 60, 130 80 C 140 100, 130 130, 110 150 C 100 160, 80 170, 60 170 Z" fill="#E0F2F7"/> <circle cx="70" cy="80" r="15" fill="#B3E0F2"/> <circle cx="65" cy="75" r="3" fill="#000"/> <circle cx="75" cy="75" r="3" fill="#000"/> <path d="M 68 85 Q 70 88, 72 85" stroke="#000" stroke-width="1" fill="none"/> <path d="M 30 130 Q 20 140, 25 150 Q 30 160, 40 150" fill="#E0F2F7"/> <path d="M 130 130 Q 140 140, 135 150 Q 130 160, 120 150" fill="#E0F2F7"/> </g>

    <g id="bunyip">
      <path d="M 50 150 C 30 130, 20 100, 30 80 C 40 60, 60 50, 80 50 C 100 50, 120 60, 130 80 C 140 100, 130 130, 110 150 C 100 160, 80 170, 60 170 Z" fill="#60B08B"/> <circle cx="70" cy="80" r="15" fill="#4CAF50"/> <circle cx="65" cy="75" r="3" fill="#000"/> <circle cx="75" cy="75" r="3" fill="#000"/> <path d="M 68 85 Q 70 88, 72 85" stroke="#000" stroke-width="1" fill="none"/> <path d="M 30 130 Q 20 140, 25 150 Q 30 160, 40 150" fill="#60B08B"/> <path d="M 130 130 Q 140 140, 135 150 Q 130 160, 120 150" fill="#60B08B"/> </g>

    <g id="caveman">
      <path d="M 50 150 C 30 130, 20 100, 30 80 C 40 60, 60 50, 80 50 C 100 50, 120 60, 130 80 C 140 100, 130 130, 110 150 C 100 160, 80 170, 60 170 Z" fill="#E6BF83"/> <circle cx="70" cy="80" r="15" fill="#C99B6A"/> <circle cx="65" cy="75" r="3" fill="#000"/> <circle cx="75" cy="75" r="3" fill="#000"/> <path d="M 68 85 Q 70 88, 72 85" stroke="#000" stroke-width="1" fill="none"/> <path d="M 30 130 Q 20 140, 25 150 Q 30 160, 40 150" fill="#E6BF83"/> <path d="M 130 130 Q 140 140, 135 150 Q 130 160, 120 150" fill="#E6BF83"/> </g>

  </defs>

  <text x="300" y="150" font-family="Verdana, Arial, sans-serif" font-size="60" font-weight="bold" text-anchor="middle" fill="url(#textGradient)">
    findmytribes
  </text>

  <use xlink:href="#bigfoot" transform="translate(50, 50) scale(0.7)"/>

  <use xlink:href="#yeti" transform="translate(150, 20) scale(0.7)"/>

  <use xlink:href="#bunyip" transform="translate(400, 20) scale(0.7)"/>

  <use xlink:href="#caveman" transform="translate(480, 50) scale(0.7)"/>

  <circle cx="100" cy="200" r="10" fill="#FFC107" opacity="0.6"/>
  <circle cx="500" cy="200" r="10" fill="#FFC107" opacity="0.6"/>
  <rect x="100" y="195" width="400" height="10" fill="#FFC107" opacity="0.3" rx="5" ry="5"/>

</svg>